<svg xmlns="http://www.w3.org/2000/svg" viewBox="0 0 130 60"><g fill="black"><path d="M10.9,10L39.1,10Q40,10 40,10.9L40,49.1Q40,50 39.1,50L30.9,50Q30,50 30,49.1L30,20.9Q30,20 29.1,20L20.9,20Q20,20 20,20.9L20,49.1Q20,50 19.1,50L10.9,50Q10,50 10,49.1L10,10.9Q10,10 10.9,10M50.9,10L79.1,10Q80,10 80,10.9L80,49.1Q80,50 79.1,50L50.9,50Q50,50 50,49.1L50,10.9Q50,10 50.9,10M60,20.9L60,39.1Q60,40 60.9,40L69.1,40Q70,40 70,39.1L70,20.9Q70,20 69.1,20L60.9,20Q60,20 60,20.9M90.9,10L119.1,10Q120,10 120,10.9L120,39.1Q120,40 119.1,40L100.9,40Q100,40 100,40.9L100,49.1Q100,50 99.1,50L90.9,50Q90,50 90,49.1L90,10.9Q90,10 90.9,10M100,20.9L100,29.1Q100,30 100.9,30L109.1,30Q110,30 110,29.1L110,20.9Q110,20 109.1,20L100.9,20Q100,20 100,20.9"></path></g></svg>